<?xml version="1.0" standalone="no"?>
<!DOCTYPE svg PUBLIC "-//W3C//DTD SVG 20010904//EN"
 "http://www.w3.org/TR/2001/REC-SVG-20010904/DTD/svg10.dtd">
<svg version="1.0" xmlns="http://www.w3.org/2000/svg"
 width="564.000000pt" height="564.000000pt" viewBox="0 0 564.000000 564.000000"
 preserveAspectRatio="xMidYMid meet">
<metadata>
Created by potrace 1.11, written by Peter Selinger 2001-2013
</metadata>
<g transform="translate(0.000000,564.000000) scale(0.100000,-0.100000)"
fill="#000000" stroke="none">
<path d="M2649 5436 c-2 -2 -33 -7 -69 -10 -192 -18 -466 -91 -622 -167 -32
-15 -58 -26 -58 -24 0 6 -186 -97 -255 -142 -244 -159 -484 -399 -637 -638
-53 -82 -93 -148 -94 -155 0 -3 -23 -52 -51 -110 -48 -100 -98 -232 -124 -330
-7 -25 -14 -49 -15 -55 -7 -24 -30 -137 -39 -190 -5 -33 -20 -170 -24 -222 -1
-9 -36 -12 -128 -11 l-128 2 -5 -75 -5 -74 -95 -27 c-52 -15 -139 -40 -192
-56 -54 -16 -100 -27 -103 -24 -3 3 -5 -285 -5 -641 0 -628 1 -646 19 -652 11
-3 28 -7 38 -9 10 -2 72 -20 138 -41 66 -20 131 -38 144 -41 53 -11 60 -20 63
-92 l3 -67 418 -1 417 -2 0 137 c1 171 1 1548 0 1616 l0 50 -127 0 c-121 0
-128 1 -128 20 1 24 16 153 20 175 2 8 6 31 9 50 16 88 47 202 76 275 4 11 14
36 21 55 7 19 36 83 65 142 86 175 203 339 339 473 149 148 262 231 465 342
96 53 325 136 433 158 15 3 37 7 50 10 108 22 229 32 385 29 98 -1 193 -5 212
-8 19 -3 51 -8 70 -11 19 -3 41 -7 49 -10 8 -3 30 -8 50 -11 44 -8 52 -9 71
-17 8 -3 40 -13 70 -22 30 -9 73 -23 95 -32 22 -8 49 -19 60 -23 26 -10 170
-82 214 -106 40 -23 191 -124 207 -138 7 -6 31 -27 55 -46 57 -46 202 -192
237 -238 15 -21 35 -46 45 -57 10 -11 26 -32 35 -47 9 -16 20 -28 24 -28 4 0
8 -5 8 -11 0 -6 13 -29 29 -52 50 -74 135 -246 166 -337 1 -3 5 -14 9 -25 20
-52 55 -170 62 -210 2 -11 8 -45 14 -75 11 -57 23 -157 24 -200 l1 -25 -118
-1 c-66 -1 -123 -6 -129 -12 -10 -10 -14 -1764 -4 -1781 3 -5 108 -8 236 -8
126 0 232 -2 235 -5 8 -7 -136 -80 -220 -111 -68 -26 -229 -71 -290 -82 -16
-2 -41 -7 -55 -10 -14 -3 -45 -8 -70 -10 -25 -3 -58 -7 -75 -9 -147 -20 -605
-27 -870 -13 -66 4 -183 10 -260 14 -288 15 -647 9 -756 -12 -13 -3 -36 -7
-52 -10 -48 -9 -141 -47 -177 -73 -68 -49 -130 -133 -130 -175 0 -9 -3 -18 -8
-21 -4 -2 -9 -34 -10 -71 -3 -62 -1 -69 33 -115 110 -149 274 -239 510 -277
63 -10 398 -10 487 0 70 7 203 25 235 31 10 2 38 7 63 11 25 4 54 9 65 11 10
2 35 6 55 9 20 3 47 8 60 11 14 2 36 7 50 9 89 15 381 65 410 70 19 3 96 8
170 10 145 5 201 -4 246 -40 25 -20 26 -22 12 -56 -25 -59 -80 -98 -228 -162
-36 -15 -73 -28 -100 -34 -29 -7 -45 -11 -45 -13 0 -1 -8 -3 -17 -5 -9 -2 -58
-12 -110 -24 -51 -11 -108 -23 -125 -26 -18 -3 -48 -8 -65 -11 -18 -3 -51 -7
-72 -9 -21 -3 -55 -7 -75 -10 -20 -2 -60 -7 -89 -10 -57 -5 -75 -12 -68 -24 3
-4 6 -32 7 -62 3 -81 2 -80 78 -74 36 4 77 8 91 10 14 2 76 11 138 20 62 9
121 18 130 20 420 87 626 188 693 340 64 146 2 260 -170 314 -52 16 -86 19
-214 16 -84 -2 -163 -6 -177 -8 -14 -3 -47 -8 -73 -12 -26 -3 -71 -10 -99 -15
-28 -6 -53 -8 -56 -6 -2 3 -15 1 -29 -5 -13 -5 -41 -11 -61 -14 -39 -6 -54 -9
-112 -19 -19 -4 -60 -11 -90 -16 -30 -6 -64 -12 -75 -14 -21 -4 -87 -14 -140
-22 -16 -2 -41 -7 -55 -9 -14 -3 -43 -8 -65 -10 -22 -2 -69 -7 -105 -12 -118
-13 -495 -8 -495 7 0 1 -9 3 -20 4 -87 12 -225 79 -282 137 -63 64 -65 68 -59
104 16 85 107 152 231 170 11 2 40 6 65 11 25 4 155 8 290 7 236 0 334 -3 635
-19 187 -11 634 -11 765 0 148 11 162 13 211 22 24 4 51 8 59 9 34 5 121 23
150 30 3 1 23 5 45 10 68 13 236 75 330 120 112 54 225 129 291 193 7 7 34 13
59 14 l45 1 1 41 c1 22 0 55 -1 72 l-1 30 148 43 c81 23 172 50 201 59 l52 16
-2 639 -3 640 -170 49 c-93 27 -181 53 -195 57 -26 8 -27 11 -29 111 l-1 45
-130 -2 c-96 -2 -130 1 -131 10 -16 190 -34 302 -76 457 -23 89 -75 236 -107
305 -81 172 -165 312 -268 447 -82 105 -253 282 -343 351 -33 26 -67 53 -74
60 -52 43 -227 149 -347 208 -114 56 -292 125 -374 144 -8 2 -46 11 -85 20
-38 9 -77 17 -85 19 -8 2 -40 7 -70 11 -30 4 -64 10 -75 12 -24 6 -420 14
-426 9z m-1692 -2256 l82 0 1 -177 c0 -98 1 -185 1 -193 0 -11 0 -310 0 -482
0 -10 -1 -118 -1 -241 -1 -122 -1 -227 0 -232 2 -6 2 -24 1 -41 l-1 -31 -217
1 -218 1 -1 697 -2 697 52 3 c28 2 89 2 136 1 47 -1 122 -2 167 -3z m4019 1
l62 -1 0 -699 0 -698 -219 0 -218 0 0 698 0 698 112 3 c61 2 132 2 157 1 25
-1 73 -2 106 -2z m-4578 -696 c0 -300 -3 -545 -6 -545 -3 0 -48 12 -99 26
l-94 27 0 266 c0 146 0 275 0 286 0 11 0 111 0 222 l1 202 87 26 c79 24 105
32 110 34 0 1 1 -244 1 -544z m4955 510 l88 -26 -1 -47 c-1 -50 -2 -211 -1
-239 2 -51 -1 -118 -5 -124 -2 -4 -1 -10 3 -12 5 -3 6 -45 3 -94 -3 -48 -3
-114 0 -145 3 -32 3 -58 0 -58 -6 0 -4 -99 2 -106 3 -2 2 -21 -2 -42 -3 -20
-3 -49 1 -63 3 -15 4 -31 0 -37 -5 -8 -171 -62 -192 -62 -4 0 -7 245 -7 544 0
405 3 544 12 541 6 -2 51 -16 99 -30z"/>
</g>
</svg>
